<?xml version="1.0" encoding="UTF-8" standalone="no"?>
<!-- Generator: Adobe Illustrator 16.0.0, SVG Export Plug-In . SVG Version: 6.00 Build 0)  -->

<svg
   xmlns:dc="http://purl.org/dc/elements/1.1/"
   xmlns:cc="http://creativecommons.org/ns#"
   xmlns:rdf="http://www.w3.org/1999/02/22-rdf-syntax-ns#"
   xmlns:svg="http://www.w3.org/2000/svg"
   xmlns="http://www.w3.org/2000/svg"
   xmlns:sodipodi="http://sodipodi.sourceforge.net/DTD/sodipodi-0.dtd"
   xmlns:inkscape="http://www.inkscape.org/namespaces/inkscape"
   version="1.1"
   id="Capa_1"
   x="0px"
   y="0px"
   width="22.258px"
   height="22.258px"
   viewBox="0 0 22.258 22.258"
   style="enable-background:new 0 0 22.258 22.258;"
   xml:space="preserve"
   sodipodi:docname="linkedin-dark.svg"
   inkscape:version="0.92.5 (2060ec1f9f, 2020-04-08)"><metadata
   id="metadata854"><rdf:RDF><cc:Work
       rdf:about=""><dc:format>image/svg+xml</dc:format><dc:type
         rdf:resource="http://purl.org/dc/dcmitype/StillImage" /><dc:title></dc:title></cc:Work></rdf:RDF></metadata><defs
   id="defs852" /><sodipodi:namedview
   pagecolor="#ffffff"
   bordercolor="#666666"
   borderopacity="1"
   objecttolerance="10"
   gridtolerance="10"
   guidetolerance="10"
   inkscape:pageopacity="0"
   inkscape:pageshadow="2"
   inkscape:window-width="2560"
   inkscape:window-height="1376"
   id="namedview850"
   showgrid="false"
   inkscape:zoom="51.936384"
   inkscape:cx="11.129"
   inkscape:cy="11.129"
   inkscape:window-x="1920"
   inkscape:window-y="27"
   inkscape:window-maximized="1"
   inkscape:current-layer="g817" />
<g
   id="g817">
	<path
   d="M5.366,2.973c0,1.376-1.035,2.479-2.699,2.479H2.636C1.034,5.453,0,4.348,0,2.973c0-1.409,1.067-2.482,2.698-2.482   C4.331,0.49,5.336,1.564,5.366,2.973z M0.28,21.766h4.772V7.413H0.28V21.766z M16.764,7.077c-2.531,0-3.664,1.39-4.301,2.37v0.046   h-0.031c0.012-0.014,0.023-0.03,0.031-0.046V7.414H7.692c0.062,1.345,0,14.353,0,14.353h4.771v-8.016   c0-0.432,0.029-0.855,0.157-1.164c0.346-0.854,1.132-1.747,2.446-1.747c1.729,0,2.42,1.319,2.42,3.247v7.68h4.771v-8.229   C22.258,9.126,19.902,7.077,16.764,7.077z"
   id="path815"
   style="fill:#598392;fill-opacity:1" />
</g>
<g
   id="g819">
</g>
<g
   id="g821">
</g>
<g
   id="g823">
</g>
<g
   id="g825">
</g>
<g
   id="g827">
</g>
<g
   id="g829">
</g>
<g
   id="g831">
</g>
<g
   id="g833">
</g>
<g
   id="g835">
</g>
<g
   id="g837">
</g>
<g
   id="g839">
</g>
<g
   id="g841">
</g>
<g
   id="g843">
</g>
<g
   id="g845">
</g>
<g
   id="g847">
</g>
</svg>