<?xml version="1.0" encoding="UTF-8" standalone="no"?>
<svg
   xmlns:dc="http://purl.org/dc/elements/1.1/"
   xmlns:cc="http://creativecommons.org/ns#"
   xmlns:rdf="http://www.w3.org/1999/02/22-rdf-syntax-ns#"
   xmlns:svg="http://www.w3.org/2000/svg"
   xmlns="http://www.w3.org/2000/svg"
   xmlns:sodipodi="http://sodipodi.sourceforge.net/DTD/sodipodi-0.dtd"
   xmlns:inkscape="http://www.inkscape.org/namespaces/inkscape"
   id="Bold"
   enable-background="new 0 0 24 24"
   height="512"
   viewBox="0 0 24 24"
   width="512"
   version="1.1"
   sodipodi:docname="twitter-dark.svg"
   inkscape:version="0.92.5 (2060ec1f9f, 2020-04-08)">
  <metadata
     id="metadata822">
    <rdf:RDF>
      <cc:Work
         rdf:about="">
        <dc:format>image/svg+xml</dc:format>
        <dc:type
           rdf:resource="http://purl.org/dc/dcmitype/StillImage" />
        <dc:title></dc:title>
      </cc:Work>
    </rdf:RDF>
  </metadata>
  <defs
     id="defs820" />
  <sodipodi:namedview
     pagecolor="#ffffff"
     bordercolor="#666666"
     borderopacity="1"
     objecttolerance="10"
     gridtolerance="10"
     guidetolerance="10"
     inkscape:pageopacity="0"
     inkscape:pageshadow="2"
     inkscape:window-width="2560"
     inkscape:window-height="1376"
     id="namedview818"
     showgrid="false"
     inkscape:zoom="2.328125"
     inkscape:cx="256"
     inkscape:cy="256"
     inkscape:window-x="1920"
     inkscape:window-y="27"
     inkscape:window-maximized="1"
     inkscape:current-layer="Bold" />
  <path
     d="m21.534 7.113c.976-.693 1.797-1.558 2.466-2.554v-.001c-.893.391-1.843.651-2.835.777 1.02-.609 1.799-1.566 2.165-2.719-.951.567-2.001.967-3.12 1.191-.903-.962-2.19-1.557-3.594-1.557-2.724 0-4.917 2.211-4.917 4.921 0 .39.033.765.114 1.122-4.09-.2-7.71-2.16-10.142-5.147-.424.737-.674 1.58-.674 2.487 0 1.704.877 3.214 2.186 4.089-.791-.015-1.566-.245-2.223-.606v.054c0 2.391 1.705 4.377 3.942 4.835-.401.11-.837.162-1.29.162-.315 0-.633-.018-.931-.084.637 1.948 2.447 3.381 4.597 3.428-1.674 1.309-3.8 2.098-6.101 2.098-.403 0-.79-.018-1.177-.067 2.18 1.405 4.762 2.208 7.548 2.208 8.683 0 14.342-7.244 13.986-14.637z"
     id="path815"
     style="fill:#598392;fill-opacity:1" />
  <path
     style="opacity:0;fill:#aa0000;fill-opacity:0.99043059;stroke-width:0.4295302"
     d="M 140.62819,463.19005 C 90.927759,459.45455 44.964995,444.74313 5.0088243,419.78199 l -4.19271692,-2.61925 2.00170622,0.24271 c 13.8876074,1.68389 36.4254804,1.23849 52.3338644,-1.03424 34.331125,-4.90466 68.553622,-19.01195 96.214762,-39.66192 l 4.08054,-3.04626 -5.58389,-0.52819 c -14.5856,-1.37969 -26.32291,-4.58326 -38.25018,-10.43996 -21.160396,-10.39049 -37.993036,-27.21762 -48.552404,-48.53649 -2.861187,-5.7766 -5.631871,-12.72886 -5.232138,-13.1286 0.135259,-0.13525 1.376258,-0.0363 2.757773,0.21987 4.934873,0.91512 16.552209,1.35072 23.544642,0.88283 8.887191,-0.59468 21.911457,-2.90295 19.987337,-3.54233 -0.35436,-0.11775 -2.90386,-0.81128 -5.66555,-1.54117 -22.109122,-5.84326 -42.818891,-19.84609 -56.644541,-38.3 C 29.157751,241.86393 21.73381,221.3558 20.912653,201.02694 l -0.258244,-6.39319 1.89293,1.10051 c 2.837032,1.64939 9.388294,4.44058 14.743801,6.28165 8.464294,2.90979 17.862179,4.79368 26.880672,5.38847 4.727117,0.31177 4.859735,0.65404 -1.57068,-4.0537 -5.423717,-3.97073 -15.62502,-14.27532 -19.996538,-20.199 -8.732158,-11.83262 -14.357307,-23.48222 -17.73303,-36.72483 -2.731611,-10.71584 -2.990931,-12.98578 -2.993267,-26.20135 -0.0019,-10.57224 0.11268,-12.65025 0.947097,-17.1812 1.986627,-10.787561 5.476625,-21.327298 10.027169,-30.281884 1.140507,-2.244295 2.244305,-4.331589 2.452885,-4.63843 0.274317,-0.403545 1.849587,1.141302 5.693859,5.583893 6.526414,7.542183 19.400483,20.68478 26.608747,27.163751 36.673536,32.96312 80.627186,56.31021 127.785236,67.87635 17.22679,4.22509 33.89059,6.78667 53.07959,8.15943 l 3.68362,0.26352 -0.75899,-4.20426 c -1.8542,-10.27095 -2.09484,-24.74804 -0.58036,-34.91566 4.47273,-30.02822 20.81084,-55.693848 46.29379,-72.723191 5.40049,-3.608954 16.60224,-9.180418 22.63134,-11.25625 5.43815,-1.872368 12.88396,-3.732501 19.18824,-4.793663 6.59707,-1.110445 24.02202,-1.104182 31.0668,0.01117 22.13357,3.504244 42.37049,13.666981 58.44952,29.35264 l 2.82536,2.756245 4.90618,-1.100741 c 10.72559,-2.406374 24.54345,-6.735284 34.4296,-10.786226 5.50589,-2.256104 17.71507,-8.167685 22.98665,-11.129944 1.94899,-1.095202 3.54363,-1.803206 3.54363,-1.573342 0,0.229864 -0.68506,2.222434 -1.52235,4.427934 -7.62493,20.084823 -22.11895,38.009939 -40.49121,50.076348 -1.96381,1.28979 -3.49706,2.41857 -3.4072,2.50841 0.0898,0.0898 3.1546,-0.30502 6.81063,-0.87745 16.16687,-2.53128 32.10197,-6.91729 47.57653,-13.095056 2.45098,-0.978487 4.55289,-1.682512 4.67088,-1.564503 0.2703,0.270282 -4.88647,7.510829 -9.44864,13.266789 -10.74048,13.55086 -24.47471,26.98071 -37.57689,36.74402 l -4.39499,3.27499 -0.004,13.96574 c -0.004,13.99769 -0.30217,20.18264 -1.53634,31.79124 -3.82858,36.01076 -14.25525,71.29659 -30.71533,103.94631 -28.29534,56.12781 -73.00647,101.60273 -127.42034,129.59807 -34.75885,17.88305 -68.90244,27.6952 -110.51361,31.75929 -7.79168,0.761 -40.79702,1.14195 -48.53691,0.56021 z"
     id="path824"
     inkscape:connector-curvature="0"
     transform="scale(0.046875)" />
  <path
     style="opacity:0;fill:#aa0000;fill-opacity:0.99043059;stroke-width:0.4295302"
     d="M 140.62819,463.19005 C 90.927759,459.45455 44.964995,444.74313 5.0088243,419.78199 l -4.19271692,-2.61925 2.00170622,0.24271 c 13.8876074,1.68389 36.4254804,1.23849 52.3338644,-1.03424 34.331125,-4.90466 68.553622,-19.01195 96.214762,-39.66192 l 4.08054,-3.04626 -5.58389,-0.52819 c -14.5856,-1.37969 -26.32291,-4.58326 -38.25018,-10.43996 -21.160396,-10.39049 -37.993036,-27.21762 -48.552404,-48.53649 -2.861187,-5.7766 -5.631871,-12.72886 -5.232138,-13.1286 0.135259,-0.13525 1.376258,-0.0363 2.757773,0.21987 4.934873,0.91512 16.552209,1.35072 23.544642,0.88283 8.887191,-0.59468 21.911457,-2.90295 19.987337,-3.54233 -0.35436,-0.11775 -2.90386,-0.81128 -5.66555,-1.54117 -22.109122,-5.84326 -42.818891,-19.84609 -56.644541,-38.3 C 29.157751,241.86393 21.73381,221.3558 20.912653,201.02694 l -0.258244,-6.39319 1.89293,1.10051 c 2.837032,1.64939 9.388294,4.44058 14.743801,6.28165 8.464294,2.90979 17.862179,4.79368 26.880672,5.38847 4.727117,0.31177 4.859735,0.65404 -1.57068,-4.0537 -5.423717,-3.97073 -15.62502,-14.27532 -19.996538,-20.199 -8.732158,-11.83262 -14.357307,-23.48222 -17.73303,-36.72483 -2.731611,-10.71584 -2.990931,-12.98578 -2.993267,-26.20135 -0.0019,-10.57224 0.11268,-12.65025 0.947097,-17.1812 1.986627,-10.787561 5.476625,-21.327298 10.027169,-30.281884 1.140507,-2.244295 2.244305,-4.331589 2.452885,-4.63843 0.274317,-0.403545 1.849587,1.141302 5.693859,5.583893 6.526414,7.542183 19.400483,20.68478 26.608747,27.163751 36.673536,32.96312 80.627186,56.31021 127.785236,67.87635 17.22679,4.22509 33.89059,6.78667 53.07959,8.15943 l 3.68362,0.26352 -0.75899,-4.20426 c -1.8542,-10.27095 -2.09484,-24.74804 -0.58036,-34.91566 4.47273,-30.02822 20.81084,-55.693848 46.29379,-72.723191 5.40049,-3.608954 16.60224,-9.180418 22.63134,-11.25625 5.43815,-1.872368 12.88396,-3.732501 19.18824,-4.793663 6.59707,-1.110445 24.02202,-1.104182 31.0668,0.01117 22.13357,3.504244 42.37049,13.666981 58.44952,29.35264 l 2.82536,2.756245 4.90618,-1.100741 c 10.72559,-2.406374 24.54345,-6.735284 34.4296,-10.786226 5.50589,-2.256104 17.71507,-8.167685 22.98665,-11.129944 1.94899,-1.095202 3.54363,-1.803206 3.54363,-1.573342 0,0.229864 -0.68506,2.222434 -1.52235,4.427934 -7.62493,20.084823 -22.11895,38.009939 -40.49121,50.076348 -1.96381,1.28979 -3.49706,2.41857 -3.4072,2.50841 0.0898,0.0898 3.1546,-0.30502 6.81063,-0.87745 16.16687,-2.53128 32.10197,-6.91729 47.57653,-13.095056 2.45098,-0.978487 4.55289,-1.682512 4.67088,-1.564503 0.2703,0.270282 -4.88647,7.510829 -9.44864,13.266789 -10.74048,13.55086 -24.47471,26.98071 -37.57689,36.74402 l -4.39499,3.27499 -0.004,13.96574 c -0.004,13.99769 -0.30217,20.18264 -1.53634,31.79124 -3.82858,36.01076 -14.25525,71.29659 -30.71533,103.94631 -28.29534,56.12781 -73.00647,101.60273 -127.42034,129.59807 -34.75885,17.88305 -68.90244,27.6952 -110.51361,31.75929 -7.79168,0.761 -40.79702,1.14195 -48.53691,0.56021 z"
     id="path826"
     inkscape:connector-curvature="0"
     transform="scale(0.046875)" />
  <path
     style="opacity:0;fill:#aa0000;fill-opacity:0.99043059;stroke-width:0.4295302"
     d="M 140.62819,463.19005 C 90.927759,459.45455 44.964995,444.74313 5.0088243,419.78199 l -4.19271692,-2.61925 2.00170622,0.24271 c 13.8876074,1.68389 36.4254804,1.23849 52.3338644,-1.03424 34.331125,-4.90466 68.553622,-19.01195 96.214762,-39.66192 l 4.08054,-3.04626 -5.58389,-0.52819 c -14.5856,-1.37969 -26.32291,-4.58326 -38.25018,-10.43996 -21.160396,-10.39049 -37.993036,-27.21762 -48.552404,-48.53649 -2.861187,-5.7766 -5.631871,-12.72886 -5.232138,-13.1286 0.135259,-0.13525 1.376258,-0.0363 2.757773,0.21987 4.934873,0.91512 16.552209,1.35072 23.544642,0.88283 8.887191,-0.59468 21.911457,-2.90295 19.987337,-3.54233 -0.35436,-0.11775 -2.90386,-0.81128 -5.66555,-1.54117 -22.109122,-5.84326 -42.818891,-19.84609 -56.644541,-38.3 C 29.157751,241.86393 21.73381,221.3558 20.912653,201.02694 l -0.258244,-6.39319 1.89293,1.10051 c 2.837032,1.64939 9.388294,4.44058 14.743801,6.28165 8.464294,2.90979 17.862179,4.79368 26.880672,5.38847 4.727117,0.31177 4.859735,0.65404 -1.57068,-4.0537 -5.423717,-3.97073 -15.62502,-14.27532 -19.996538,-20.199 -8.732158,-11.83262 -14.357307,-23.48222 -17.73303,-36.72483 -2.731611,-10.71584 -2.990931,-12.98578 -2.993267,-26.20135 -0.0019,-10.57224 0.11268,-12.65025 0.947097,-17.1812 1.986627,-10.787561 5.476625,-21.327298 10.027169,-30.281884 1.140507,-2.244295 2.244305,-4.331589 2.452885,-4.63843 0.274317,-0.403545 1.849587,1.141302 5.693859,5.583893 6.526414,7.542183 19.400483,20.68478 26.608747,27.163751 36.673536,32.96312 80.627186,56.31021 127.785236,67.87635 17.22679,4.22509 33.89059,6.78667 53.07959,8.15943 l 3.68362,0.26352 -0.75899,-4.20426 c -1.8542,-10.27095 -2.09484,-24.74804 -0.58036,-34.91566 4.47273,-30.02822 20.81084,-55.693848 46.29379,-72.723191 5.40049,-3.608954 16.60224,-9.180418 22.63134,-11.25625 5.43815,-1.872368 12.88396,-3.732501 19.18824,-4.793663 6.59707,-1.110445 24.02202,-1.104182 31.0668,0.01117 22.13357,3.504244 42.37049,13.666981 58.44952,29.35264 l 2.82536,2.756245 4.90618,-1.100741 c 10.72559,-2.406374 24.54345,-6.735284 34.4296,-10.786226 5.50589,-2.256104 17.71507,-8.167685 22.98665,-11.129944 1.94899,-1.095202 3.54363,-1.803206 3.54363,-1.573342 0,0.229864 -0.68506,2.222434 -1.52235,4.427934 -7.62493,20.084823 -22.11895,38.009939 -40.49121,50.076348 -1.96381,1.28979 -3.49706,2.41857 -3.4072,2.50841 0.0898,0.0898 3.1546,-0.30502 6.81063,-0.87745 16.16687,-2.53128 32.10197,-6.91729 47.57653,-13.095056 2.45098,-0.978487 4.55289,-1.682512 4.67088,-1.564503 0.2703,0.270282 -4.88647,7.510829 -9.44864,13.266789 -10.74048,13.55086 -24.47471,26.98071 -37.57689,36.74402 l -4.39499,3.27499 -0.004,13.96574 c -0.004,13.99769 -0.30217,20.18264 -1.53634,31.79124 -3.82858,36.01076 -14.25525,71.29659 -30.71533,103.94631 -28.29534,56.12781 -73.00647,101.60273 -127.42034,129.59807 -34.75885,17.88305 -68.90244,27.6952 -110.51361,31.75929 -7.79168,0.761 -40.79702,1.14195 -48.53691,0.56021 z"
     id="path828"
     inkscape:connector-curvature="0"
     transform="scale(0.046875)" />
  <path
     style="opacity:0;fill:#aa0000;fill-opacity:0.99043059;stroke-width:0.4295302"
     d="M 140.62819,463.19005 C 90.927759,459.45455 44.964995,444.74313 5.0088243,419.78199 l -4.19271692,-2.61925 2.00170622,0.24271 c 13.8876074,1.68389 36.4254804,1.23849 52.3338644,-1.03424 34.331125,-4.90466 68.553622,-19.01195 96.214762,-39.66192 l 4.08054,-3.04626 -5.58389,-0.52819 c -14.5856,-1.37969 -26.32291,-4.58326 -38.25018,-10.43996 -21.160396,-10.39049 -37.993036,-27.21762 -48.552404,-48.53649 -2.861187,-5.7766 -5.631871,-12.72886 -5.232138,-13.1286 0.135259,-0.13525 1.376258,-0.0363 2.757773,0.21987 4.934873,0.91512 16.552209,1.35072 23.544642,0.88283 8.887191,-0.59468 21.911457,-2.90295 19.987337,-3.54233 -0.35436,-0.11775 -2.90386,-0.81128 -5.66555,-1.54117 -22.109122,-5.84326 -42.818891,-19.84609 -56.644541,-38.3 C 29.157751,241.86393 21.73381,221.3558 20.912653,201.02694 l -0.258244,-6.39319 1.89293,1.10051 c 2.837032,1.64939 9.388294,4.44058 14.743801,6.28165 8.464294,2.90979 17.862179,4.79368 26.880672,5.38847 4.727117,0.31177 4.859735,0.65404 -1.57068,-4.0537 -5.423717,-3.97073 -15.62502,-14.27532 -19.996538,-20.199 -8.732158,-11.83262 -14.357307,-23.48222 -17.73303,-36.72483 -2.731611,-10.71584 -2.990931,-12.98578 -2.993267,-26.20135 -0.0019,-10.57224 0.11268,-12.65025 0.947097,-17.1812 1.986627,-10.787561 5.476625,-21.327298 10.027169,-30.281884 1.140507,-2.244295 2.244305,-4.331589 2.452885,-4.63843 0.274317,-0.403545 1.849587,1.141302 5.693859,5.583893 6.526414,7.542183 19.400483,20.68478 26.608747,27.163751 36.673536,32.96312 80.627186,56.31021 127.785236,67.87635 17.22679,4.22509 33.89059,6.78667 53.07959,8.15943 l 3.68362,0.26352 -0.75899,-4.20426 c -1.8542,-10.27095 -2.09484,-24.74804 -0.58036,-34.91566 4.47273,-30.02822 20.81084,-55.693848 46.29379,-72.723191 5.40049,-3.608954 16.60224,-9.180418 22.63134,-11.25625 5.43815,-1.872368 12.88396,-3.732501 19.18824,-4.793663 6.59707,-1.110445 24.02202,-1.104182 31.0668,0.01117 22.13357,3.504244 42.37049,13.666981 58.44952,29.35264 l 2.82536,2.756245 4.90618,-1.100741 c 10.72559,-2.406374 24.54345,-6.735284 34.4296,-10.786226 5.50589,-2.256104 17.71507,-8.167685 22.98665,-11.129944 1.94899,-1.095202 3.54363,-1.803206 3.54363,-1.573342 0,0.229864 -0.68506,2.222434 -1.52235,4.427934 -7.62493,20.084823 -22.11895,38.009939 -40.49121,50.076348 -1.96381,1.28979 -3.49706,2.41857 -3.4072,2.50841 0.0898,0.0898 3.1546,-0.30502 6.81063,-0.87745 16.16687,-2.53128 32.10197,-6.91729 47.57653,-13.095056 2.45098,-0.978487 4.55289,-1.682512 4.67088,-1.564503 0.2703,0.270282 -4.88647,7.510829 -9.44864,13.266789 -10.74048,13.55086 -24.47471,26.98071 -37.57689,36.74402 l -4.39499,3.27499 -0.004,13.96574 c -0.004,13.99769 -0.30217,20.18264 -1.53634,31.79124 -3.82858,36.01076 -14.25525,71.29659 -30.71533,103.94631 -28.29534,56.12781 -73.00647,101.60273 -127.42034,129.59807 -34.75885,17.88305 -68.90244,27.6952 -110.51361,31.75929 -7.79168,0.761 -40.79702,1.14195 -48.53691,0.56021 z"
     id="path830"
     inkscape:connector-curvature="0"
     transform="scale(0.046875)" />
  <path
     style="opacity:0;fill:#aa0000;fill-opacity:0.99043059;stroke-width:0.4295302"
     d="M 140.62819,463.19005 C 90.927759,459.45455 44.964995,444.74313 5.0088243,419.78199 l -4.19271692,-2.61925 2.00170622,0.24271 c 13.8876074,1.68389 36.4254804,1.23849 52.3338644,-1.03424 34.331125,-4.90466 68.553622,-19.01195 96.214762,-39.66192 l 4.08054,-3.04626 -5.58389,-0.52819 c -14.5856,-1.37969 -26.32291,-4.58326 -38.25018,-10.43996 -21.160396,-10.39049 -37.993036,-27.21762 -48.552404,-48.53649 -2.861187,-5.7766 -5.631871,-12.72886 -5.232138,-13.1286 0.135259,-0.13525 1.376258,-0.0363 2.757773,0.21987 4.934873,0.91512 16.552209,1.35072 23.544642,0.88283 8.887191,-0.59468 21.911457,-2.90295 19.987337,-3.54233 -0.35436,-0.11775 -2.90386,-0.81128 -5.66555,-1.54117 -22.109122,-5.84326 -42.818891,-19.84609 -56.644541,-38.3 C 29.157751,241.86393 21.73381,221.3558 20.912653,201.02694 l -0.258244,-6.39319 1.89293,1.10051 c 2.837032,1.64939 9.388294,4.44058 14.743801,6.28165 8.464294,2.90979 17.862179,4.79368 26.880672,5.38847 4.727117,0.31177 4.859735,0.65404 -1.57068,-4.0537 -5.423717,-3.97073 -15.62502,-14.27532 -19.996538,-20.199 -8.732158,-11.83262 -14.357307,-23.48222 -17.73303,-36.72483 -2.731611,-10.71584 -2.990931,-12.98578 -2.993267,-26.20135 -0.0019,-10.57224 0.11268,-12.65025 0.947097,-17.1812 1.986627,-10.787561 5.476625,-21.327298 10.027169,-30.281884 1.140507,-2.244295 2.244305,-4.331589 2.452885,-4.63843 0.274317,-0.403545 1.849587,1.141302 5.693859,5.583893 6.526414,7.542183 19.400483,20.68478 26.608747,27.163751 36.673536,32.96312 80.627186,56.31021 127.785236,67.87635 17.22679,4.22509 33.89059,6.78667 53.07959,8.15943 l 3.68362,0.26352 -0.75899,-4.20426 c -1.8542,-10.27095 -2.09484,-24.74804 -0.58036,-34.91566 4.47273,-30.02822 20.81084,-55.693848 46.29379,-72.723191 5.40049,-3.608954 16.60224,-9.180418 22.63134,-11.25625 5.43815,-1.872368 12.88396,-3.732501 19.18824,-4.793663 6.59707,-1.110445 24.02202,-1.104182 31.0668,0.01117 22.13357,3.504244 42.37049,13.666981 58.44952,29.35264 l 2.82536,2.756245 4.90618,-1.100741 c 10.72559,-2.406374 24.54345,-6.735284 34.4296,-10.786226 5.50589,-2.256104 17.71507,-8.167685 22.98665,-11.129944 1.94899,-1.095202 3.54363,-1.803206 3.54363,-1.573342 0,0.229864 -0.68506,2.222434 -1.52235,4.427934 -7.62493,20.084823 -22.11895,38.009939 -40.49121,50.076348 -1.96381,1.28979 -3.49706,2.41857 -3.4072,2.50841 0.0898,0.0898 3.1546,-0.30502 6.81063,-0.87745 16.16687,-2.53128 32.10197,-6.91729 47.57653,-13.095056 2.45098,-0.978487 4.55289,-1.682512 4.67088,-1.564503 0.2703,0.270282 -4.88647,7.510829 -9.44864,13.266789 -10.74048,13.55086 -24.47471,26.98071 -37.57689,36.74402 l -4.39499,3.27499 -0.004,13.96574 c -0.004,13.99769 -0.30217,20.18264 -1.53634,31.79124 -3.82858,36.01076 -14.25525,71.29659 -30.71533,103.94631 -28.29534,56.12781 -73.00647,101.60273 -127.42034,129.59807 -34.75885,17.88305 -68.90244,27.6952 -110.51361,31.75929 -7.79168,0.761 -40.79702,1.14195 -48.53691,0.56021 z"
     id="path832"
     inkscape:connector-curvature="0"
     transform="scale(0.046875)" />
  <path
     style="opacity:0;fill:#aa0000;fill-opacity:0.99043059;stroke-width:0.4295302"
     d="M 140.62819,463.19005 C 90.927759,459.45455 44.964995,444.74313 5.0088243,419.78199 l -4.19271692,-2.61925 2.00170622,0.24271 c 13.8876074,1.68389 36.4254804,1.23849 52.3338644,-1.03424 34.331125,-4.90466 68.553622,-19.01195 96.214762,-39.66192 l 4.08054,-3.04626 -5.58389,-0.52819 c -14.5856,-1.37969 -26.32291,-4.58326 -38.25018,-10.43996 -21.160396,-10.39049 -37.993036,-27.21762 -48.552404,-48.53649 -2.861187,-5.7766 -5.631871,-12.72886 -5.232138,-13.1286 0.135259,-0.13525 1.376258,-0.0363 2.757773,0.21987 4.934873,0.91512 16.552209,1.35072 23.544642,0.88283 8.887191,-0.59468 21.911457,-2.90295 19.987337,-3.54233 -0.35436,-0.11775 -2.90386,-0.81128 -5.66555,-1.54117 -22.109122,-5.84326 -42.818891,-19.84609 -56.644541,-38.3 C 29.157751,241.86393 21.73381,221.3558 20.912653,201.02694 l -0.258244,-6.39319 1.89293,1.10051 c 2.837032,1.64939 9.388294,4.44058 14.743801,6.28165 8.464294,2.90979 17.862179,4.79368 26.880672,5.38847 4.727117,0.31177 4.859735,0.65404 -1.57068,-4.0537 -5.423717,-3.97073 -15.62502,-14.27532 -19.996538,-20.199 -8.732158,-11.83262 -14.357307,-23.48222 -17.73303,-36.72483 -2.731611,-10.71584 -2.990931,-12.98578 -2.993267,-26.20135 -0.0019,-10.57224 0.11268,-12.65025 0.947097,-17.1812 1.986627,-10.787561 5.476625,-21.327298 10.027169,-30.281884 1.140507,-2.244295 2.244305,-4.331589 2.452885,-4.63843 0.274317,-0.403545 1.849587,1.141302 5.693859,5.583893 6.526414,7.542183 19.400483,20.68478 26.608747,27.163751 36.673536,32.96312 80.627186,56.31021 127.785236,67.87635 17.22679,4.22509 33.89059,6.78667 53.07959,8.15943 l 3.68362,0.26352 -0.75899,-4.20426 c -1.8542,-10.27095 -2.09484,-24.74804 -0.58036,-34.91566 4.47273,-30.02822 20.81084,-55.693848 46.29379,-72.723191 5.40049,-3.608954 16.60224,-9.180418 22.63134,-11.25625 5.43815,-1.872368 12.88396,-3.732501 19.18824,-4.793663 6.59707,-1.110445 24.02202,-1.104182 31.0668,0.01117 22.13357,3.504244 42.37049,13.666981 58.44952,29.35264 l 2.82536,2.756245 4.90618,-1.100741 c 10.72559,-2.406374 24.54345,-6.735284 34.4296,-10.786226 5.50589,-2.256104 17.71507,-8.167685 22.98665,-11.129944 1.94899,-1.095202 3.54363,-1.803206 3.54363,-1.573342 0,0.229864 -0.68506,2.222434 -1.52235,4.427934 -7.62493,20.084823 -22.11895,38.009939 -40.49121,50.076348 -1.96381,1.28979 -3.49706,2.41857 -3.4072,2.50841 0.0898,0.0898 3.1546,-0.30502 6.81063,-0.87745 16.16687,-2.53128 32.10197,-6.91729 47.57653,-13.095056 2.45098,-0.978487 4.55289,-1.682512 4.67088,-1.564503 0.2703,0.270282 -4.88647,7.510829 -9.44864,13.266789 -10.74048,13.55086 -24.47471,26.98071 -37.57689,36.74402 l -4.39499,3.27499 -0.004,13.96574 c -0.004,13.99769 -0.30217,20.18264 -1.53634,31.79124 -3.82858,36.01076 -14.25525,71.29659 -30.71533,103.94631 -28.29534,56.12781 -73.00647,101.60273 -127.42034,129.59807 -34.75885,17.88305 -68.90244,27.6952 -110.51361,31.75929 -7.79168,0.761 -40.79702,1.14195 -48.53691,0.56021 z"
     id="path834"
     inkscape:connector-curvature="0"
     transform="scale(0.046875)" />
</svg>
